<?xml version="1.0" encoding="UTF-8"?>
<svg width="82px" height="82px" viewBox="0 0 82 82" version="1.1" xmlns="http://www.w3.org/2000/svg" xmlns:xlink="http://www.w3.org/1999/xlink">
    <title>Group 36</title>
    <g id="Page-1" stroke="none" stroke-width="1" fill="none" fill-rule="evenodd">
        <g id="Trialpack-page-Copy-10" transform="translate(-1026.000000, -199.000000)">
            <g id="Group-36" transform="translate(1027.000000, 200.000000)">
                <circle id="Oval-Copy-11" stroke="#000000" cx="40" cy="40" r="40"></circle>
                <g id="Group-15" transform="translate(21.000000, 18.000000)" stroke="#1E1E1C" stroke-linecap="round" stroke-linejoin="round">
                    <line x1="0.843351351" y1="11.8339846" x2="39.3633514" y2="11.8339846" id="Stroke-1"></line>
                    <path d="M28.4462703,31.1491385 C29.1619459,29.7749846 29.5673514,28.2091385 29.5673514,26.5506769 C29.5673514,21.0368308 25.0949189,16.5697538 19.5781622,16.5697538 C19.3024865,16.5697538 19.028973,16.5772923 18.7597838,16.5999077" id="Stroke-3"></path>
                    <path d="M11.8410811,21.9048308 C11.1243243,23.2789846 10.7189189,24.8437538 10.7189189,26.5011385 C10.7189189,32.0171385 15.1924324,36.4842154 20.707027,36.4842154 C20.9837838,36.4842154 21.2583784,36.4745231 21.5286486,36.4529846" id="Stroke-5"></path>
                    <line x1="20.1032432" y1="0.538892308" x2="20.1032432" y2="11.5062769" id="Stroke-7"></line>
                    <path d="M39.6662703,39.6194615 C39.6662703,40.4777692 38.9646486,41.181 38.1073514,41.181 L2.10086486,41.181 C1.24248649,41.181 0.540864865,40.4777692 0.540864865,39.6194615 L0.540864865,13.0679231 C0.540864865,12.2096154 0.98627027,10.9636154 1.53113514,10.2991538 L8.54735135,1.74515385 C9.09113514,1.08176923 10.2392432,0.539 11.0976216,0.539 L29.9354595,0.539 C30.7916757,0.539 31.9149189,1.10115385 32.4273514,1.79038462 L38.7343784,10.2539231 C39.2468108,10.9431538 39.6662703,12.2096154 39.6662703,13.0679231 L39.6662703,39.6194615 Z" id="Stroke-9"></path>
                    <polyline id="Stroke-11" points="9.8092973 21.1760769 12.7833514 20.7054615 13.2384865 23.5636154"></polyline>
                    <polyline id="Stroke-13" points="30.5229189 30.8357538 27.536973 31.2266769 27.1585946 28.3588308"></polyline>
                </g>
            </g>
        </g>
    </g>
</svg>