<?xml version="1.0" encoding="UTF-8"?>
<svg width="82px" height="82px" viewBox="0 0 82 82" version="1.1" xmlns="http://www.w3.org/2000/svg" xmlns:xlink="http://www.w3.org/1999/xlink">
    <title>Group 30</title>
    <g id="Page-1" stroke="none" stroke-width="1" fill="none" fill-rule="evenodd">
        <g id="Trialpack-page-Copy-10" transform="translate(-387.000000, -199.000000)">
            <g id="Group-30" transform="translate(388.000000, 200.000000)">
                <circle id="Oval-Copy-5" stroke="#000000" cx="40" cy="40" r="40"></circle>
                <g id="Group-19" transform="translate(19.000000, 20.000000)" stroke="#1D1D1B">
                    <path d="M32.0185532,36.9153273 L3.90791489,36.9153273 C3.55270213,36.9153273 3.2616383,36.6251455 3.2616383,36.2710091 L3.2616383,16.9366909" id="Stroke-1" stroke-linecap="round"></path>
                    <path d="M38.4780638,16.7421545 C38.4981702,16.8032455 38.5087021,16.8691091 38.5087021,16.9368818 L38.5087021,28.4362909" id="Stroke-3" stroke-linecap="round"></path>
                    <path d="M16.6727872,16.3441091 L1.12576596,16.3441091 C0.769595745,16.3441091 0.478531915,16.0539273 0.478531915,15.6988364 L0.478531915,7.82956364 C0.478531915,7.47542727 0.769595745,7.18524545 1.12576596,7.18524545 L40.644383,7.18524545 C41.0005532,7.18524545 41.2906596,7.47542727 41.2906596,7.82956364 L41.2906596,15.6988364 C41.2906596,16.0539273 41.0005532,16.3441091 40.644383,16.3441091 L25.2045957,16.3441091 L25.1356596,16.3441091" id="Stroke-5" stroke-linecap="round"></path>
                    <line x1="16.893383" y1="7.17713182" x2="16.893383" y2="37.0229045" id="Stroke-7"></line>
                    <line x1="24.8764787" y1="7.17713182" x2="24.8764787" y2="37.0229045" id="Stroke-9"></line>
                    <path d="M21.2103191,6.81545455 C21.2103191,6.81545455 24.9730851,-0.42 29.4223404,0.570818182 C32.4785106,1.38886364 32.706383,5.61845455 30.4918085,7.02545455" id="Stroke-11" stroke-linecap="round"></path>
                    <path d="M20.5595426,6.81545455 C20.5595426,6.81545455 16.7967766,-0.42 12.3475213,0.570818182 C9.29135106,1.38886364 9.06347872,5.61845455 11.2780532,7.02545455" id="Stroke-13" stroke-linecap="round"></path>
                    <path d="M44.9982766,35.2784727 C44.9982766,38.8513364 42.0924255,41.7483818 38.5087021,41.7483818 C34.9240213,41.7483818 32.0181702,38.8513364 32.0181702,35.2784727 C32.0181702,31.7046545 34.9240213,28.8085636 38.5087021,28.8085636 C42.0924255,28.8085636 44.9982766,31.7046545 44.9982766,35.2784727 Z" id="Stroke-15" stroke-linecap="round"></path>
                    <polyline id="Stroke-17" stroke-linecap="round" points="38.5084149 30.8105318 38.5084149 35.7608045 41.3759681 37.0580318"></polyline>
                </g>
            </g>
        </g>
    </g>
</svg>