<?xml version="1.0" encoding="UTF-8"?>
<svg width="82px" height="82px" viewBox="0 0 82 82" version="1.1" xmlns="http://www.w3.org/2000/svg" xmlns:xlink="http://www.w3.org/1999/xlink">
    <title>Group 33</title>
    <g id="Page-1" stroke="none" stroke-width="1" fill="none" fill-rule="evenodd">
        <g id="Trialpack-page-Copy-10" transform="translate(-584.000000, -199.000000)">
            <g id="Group-33" transform="translate(585.000000, 200.000000)">
                <circle id="Oval-Copy-9" stroke="#000000" cx="40" cy="40" r="40"></circle>
                <g id="Group-15" transform="translate(22.000000, 21.000000)" stroke="#353535" stroke-linejoin="round">
                    <line x1="16.3018914" y1="7.20628947" x2="30.3304057" y2="7.20628947" id="Stroke-1" stroke-linecap="round"></line>
                    <line x1="16.3018914" y1="11.0299711" x2="32.6212629" y2="11.0299711" id="Stroke-2" stroke-linecap="round"></line>
                    <g id="Group-7" transform="translate(0.000000, 0.432442)">
                        <polygon id="Stroke-3" points="27.5035314 39.3813632 0.543074286 39.3813632 0.543074286 0.107678947 37.8916457 0.107678947 37.8916457 28.6113105"></polygon>
                        <polyline id="Stroke-5" points="37.8915371 28.6108789 27.2037657 28.6108789 27.2037657 39.4985368"></polyline>
                    </g>
                    <line x1="15.5543771" y1="18.3128658" x2="29.5828914" y2="18.3128658" id="Stroke-8" stroke-linecap="round"></line>
                    <line x1="15.5543771" y1="32.8680816" x2="26.3257486" y2="32.8680816" id="Stroke-9" stroke-linecap="round"></line>
                    <line x1="15.5543771" y1="28.7229816" x2="26.3257486" y2="28.7229816" id="Stroke-10" stroke-linecap="round"></line>
                    <line x1="15.5543771" y1="22.1376263" x2="31.8726629" y2="22.1376263" id="Stroke-11" stroke-linecap="round"></line>
                    <polyline id="Stroke-12" stroke-linecap="round" points="5.33389714 8.31156316 7.65515429 11.5257474 11.5409257 6.69961579"></polyline>
                    <polyline id="Stroke-13" stroke-linecap="round" points="5.33389714 18.3550526 7.65515429 21.5692368 11.5409257 16.7431053"></polyline>
                    <polyline id="Stroke-14" stroke-linecap="round" points="5.33389714 28.3985421 7.65515429 31.6127263 11.5409257 26.7865947"></polyline>
                </g>
            </g>
        </g>
    </g>
</svg>
